<svg width="49" height="41" viewBox="0 0 49 41" fill="none" xmlns="http://www.w3.org/2000/svg">
<path fill-rule="evenodd" clip-rule="evenodd" d="M14.3001 0.5H14.6721V25.3332H14.3097L11.0384 22.0062V3.80791L14.3001 0.5ZM46.3732 40.2235V39.6897C46.5163 39.8327 46.6593 39.9471 46.7833 40.0138C46.9168 40.071 47.0504 40.1091 47.1934 40.1091C47.346 40.1091 47.4605 40.071 47.5558 40.0043C47.6512 39.9376 47.6894 39.8518 47.6894 39.7374C47.6894 39.642 47.6607 39.5658 47.594 39.48C47.5368 39.4132 47.3937 39.3084 47.1743 39.1845C46.8215 38.9747 46.5926 38.8127 46.5068 38.6983C46.4209 38.5839 46.3732 38.4314 46.3732 38.2788C46.3732 38.05 46.4591 37.8689 46.6403 37.7259C46.8024 37.5829 47.0218 37.5067 47.2888 37.5067C47.4128 37.5067 47.5272 37.5257 47.6512 37.5639C47.7656 37.5925 47.8801 37.6401 48.0041 37.7069V38.174C47.861 38.0691 47.737 38.0024 47.6131 37.9547C47.4986 37.9071 47.3842 37.888 47.2697 37.888C47.1362 37.888 47.0218 37.9166 46.9359 37.9833C46.8501 38.0405 46.8024 38.1263 46.8024 38.2216C46.8024 38.3646 46.9836 38.5553 47.346 38.765L47.4128 38.8031C47.718 38.9747 47.9087 39.1177 48.0041 39.2512C48.0899 39.3847 48.1376 39.5562 48.1376 39.7469C48.1376 39.9662 48.0518 40.1473 47.8801 40.2903C47.718 40.4333 47.4891 40.5 47.222 40.5C47.0504 40.5 46.9073 40.4809 46.7738 40.4333C46.6403 40.3951 46.4972 40.3284 46.3732 40.2235ZM44.0653 40.4523V37.5639H45.9345V37.9261H44.504V38.8127H45.8964V39.1749H44.504V40.0806H45.9822V40.4523H44.0653ZM41.4807 40.4523V37.5639H42.3963C42.711 37.5639 42.959 37.6306 43.1211 37.7736C43.2928 37.9071 43.3786 38.0977 43.3786 38.3551C43.3786 38.5458 43.3309 38.6983 43.2355 38.8127C43.1497 38.9271 42.9971 39.0129 42.7968 39.0701C42.8541 39.0987 42.9017 39.1368 42.9494 39.1749C42.9876 39.2226 43.0448 39.2893 43.1211 39.3942L43.8745 40.4523H43.3405L42.8064 39.6992C42.6538 39.4609 42.5107 39.3179 42.4154 39.2607C42.32 39.194 42.2055 39.1654 42.0625 39.1654H41.9385V40.4523H41.4807ZM41.9385 38.8222H42.3009C42.5012 38.8222 42.6633 38.7841 42.7682 38.7078C42.8731 38.6316 42.9208 38.5172 42.9208 38.3551C42.9208 38.2026 42.8731 38.0882 42.7778 38.0215C42.6824 37.9452 42.5107 37.9166 42.3009 37.9166H41.9385V38.8222ZM38.1618 37.5639H38.6101V39.2226C38.6101 39.4037 38.6196 39.5467 38.6387 39.623C38.6673 39.6992 38.6959 39.766 38.7531 39.8232C38.839 39.9185 38.9534 39.9948 39.0774 40.0424C39.2014 40.0901 39.3444 40.1187 39.497 40.1187C39.7736 40.1187 39.9929 40.052 40.1551 39.928C40.3172 39.7946 40.3935 39.623 40.3935 39.4037V37.5639H40.8417V39.4228C40.8417 39.7469 40.7178 40.0043 40.4698 40.2045C40.2218 40.4047 39.9071 40.5 39.497 40.5C39.2681 40.5 39.0583 40.4619 38.8676 40.3856C38.6768 40.3093 38.5242 40.1949 38.3812 40.052C38.3049 39.9566 38.2477 39.8613 38.2095 39.7469C38.1809 39.642 38.1618 39.4609 38.1618 39.2417V37.5639ZM36.2353 40.4523V37.9357H35.0909V37.5639H37.8185V37.9357H36.6836V40.4523H36.2353ZM31.8578 40.4523V37.5639H32.2393L34.2898 39.8136V37.5639H34.738V40.4523H34.3375L32.2965 38.2026V40.4523H31.8578ZM29.3782 40.4523V37.5639H31.2475V37.9261H29.8264V38.8127H31.2093V39.1749H29.8264V40.0806H31.2952V40.4523H29.3782ZM27.6329 40.4714L26.2596 37.5639H26.7269L27.6997 39.6325L28.682 37.5639H29.1398L27.7474 40.4714H27.6329ZM24.9625 39.0319V40.2617C24.7623 40.3379 24.5715 40.4047 24.3903 40.4428C24.1996 40.4809 24.0184 40.5 23.8562 40.5C23.675 40.5 23.5034 40.4809 23.3317 40.4428C23.16 40.3951 23.017 40.3379 22.8739 40.2521C22.645 40.1091 22.4734 39.9376 22.3399 39.7183C22.2063 39.4895 22.1396 39.2512 22.1396 38.9938C22.1396 38.8031 22.1873 38.6125 22.2731 38.4218C22.3589 38.2502 22.4829 38.0882 22.6355 37.9547C22.7976 37.8022 22.9788 37.6973 23.1887 37.6211C23.3985 37.5543 23.6274 37.5162 23.8753 37.5162C24.0565 37.5162 24.2282 37.5353 24.4094 37.5734C24.5811 37.6115 24.7527 37.6687 24.9339 37.745V38.193C24.7432 38.0977 24.5525 38.0215 24.3808 37.9738C24.1996 37.9261 24.0375 37.9071 23.8753 37.9071C23.5129 37.9071 23.2077 38.0119 22.9788 38.2216C22.7404 38.4314 22.626 38.6983 22.626 39.0129C22.626 39.3179 22.7404 39.5944 22.9693 39.7946C23.1982 40.0043 23.5034 40.1091 23.8562 40.1091C23.9612 40.1091 24.0661 40.0996 24.171 40.0806C24.2759 40.0615 24.3903 40.0234 24.5048 39.9852V39.4228H23.923V39.0319H24.9625ZM18.773 40.4523V37.5639H19.1545L21.2049 39.8136V37.5639H21.6532V40.4523H21.2526L19.2117 38.2026V40.4523H18.773ZM17.6572 40.4523V37.5639H18.0959V40.4523H17.6572ZM15.6925 40.4523V37.9357H14.5481V37.5639H17.2757V37.9357H16.1312V40.4523H15.6925ZM12.3736 40.4523V37.5639H14.2524V37.9261H12.8123V38.8127H14.2047V39.1749H12.8123V40.0806H14.2906V40.4523H12.3736ZM9.60789 40.4523V37.5639H10.0466V38.8603L11.3532 37.5639H11.9063L10.5616 38.9175L12.1734 40.4523H11.5534L10.0466 39.0224V40.4523H9.60789ZM7.01381 40.4523V37.5639H7.92937C8.24409 37.5639 8.49205 37.6306 8.65418 37.7736C8.82585 37.9071 8.91168 38.0977 8.91168 38.3551C8.91168 38.5458 8.864 38.6983 8.76863 38.8127C8.67326 38.9271 8.5302 39.0129 8.32992 39.0701C8.38714 39.0987 8.43483 39.1368 8.47298 39.1749C8.52066 39.2226 8.57789 39.2893 8.65418 39.3942L9.40761 40.4523H8.864L8.33946 39.6992C8.17733 39.4609 8.04381 39.3179 7.94844 39.2607C7.85307 39.194 7.72909 39.1654 7.59557 39.1654H7.47159V40.4523H7.01381ZM7.47159 38.8222H7.834C8.03427 38.8222 8.1964 38.7841 8.30131 38.7078C8.40622 38.6316 8.4539 38.5172 8.4539 38.3551C8.4539 38.2026 8.40622 38.0882 8.31085 38.0215C8.21548 37.9452 8.04381 37.9166 7.834 37.9166H7.47159V38.8222ZM4.78214 39.2321H5.74538L5.25899 38.1835L4.78214 39.2321ZM3.75214 40.4523L5.1064 37.5639H5.43066L6.79446 40.4523H6.33668L5.92658 39.6039H4.61047L4.21945 40.4523H3.75214ZM0.509537 40.4523V37.5639H0.891019L2.01639 38.7745L3.14176 37.5639H3.52325V40.4523H3.09408V38.193L2.01639 39.3561L0.938705 38.193V40.4523H0.509537ZM0.5 35.7908V27.0586H1.98778V30.6716L5.2876 27.0586H7.11872L3.47556 30.9385L7.54788 35.7908H5.6214L1.98778 31.3294V35.7908H0.5ZM42.5489 34.0462L43.7505 33.5219C43.865 33.9128 44.0653 34.2083 44.3705 34.4085C44.6756 34.6182 45.0571 34.7231 45.5149 34.7231C45.9727 34.7231 46.316 34.5991 46.5735 34.3608C46.8501 34.132 46.9741 33.8174 46.9741 33.4171C46.9741 32.9118 46.5258 32.4542 45.6389 32.0539C45.4958 31.9967 45.4005 31.949 45.3432 31.9204C44.3228 31.4533 43.6552 31.0243 43.3118 30.6525C42.9876 30.2617 42.8159 29.8041 42.8159 29.2512C42.8159 28.5458 43.0639 27.9643 43.5693 27.5257C44.0843 27.0777 44.7519 26.8584 45.5721 26.8584C46.2493 26.8584 46.8215 26.9824 47.2697 27.2302C47.737 27.4876 48.0422 27.8403 48.2139 28.2979L47.0599 28.8794C46.8692 28.603 46.6784 28.4028 46.4495 28.2693C46.2302 28.1454 45.9822 28.0786 45.6961 28.0786C45.286 28.0786 44.9713 28.1835 44.7424 28.3837C44.4944 28.5839 44.38 28.8508 44.38 29.1749C44.38 29.7088 44.9045 30.1949 45.9441 30.6525C46.0204 30.6907 46.0776 30.7193 46.1253 30.7383C47.0313 31.1292 47.6607 31.52 47.9945 31.9013C48.3283 32.2731 48.5 32.7593 48.5 33.3217C48.5 34.1511 48.2234 34.8089 47.6798 35.295C47.1362 35.7812 46.3923 36.0291 45.4577 36.0291C44.6852 36.0291 44.0367 35.8575 43.5312 35.5143C43.0353 35.1711 42.711 34.6849 42.5489 34.0462ZM40.26 31.4438C40.26 31.0052 40.1741 30.5858 40.0216 30.1854C39.869 29.785 39.6401 29.4418 39.3444 29.1177C39.0583 28.8222 38.7341 28.5839 38.3526 28.4218C37.9711 28.2502 37.5801 28.1644 37.1604 28.1644C36.7408 28.1644 36.3403 28.2502 35.9683 28.4218C35.5868 28.5839 35.2435 28.8127 34.9574 29.1177C34.6713 29.4323 34.4328 29.785 34.2803 30.1759C34.1277 30.5763 34.0514 30.9957 34.0514 31.4438C34.0514 31.8823 34.1277 32.3017 34.2803 32.7021C34.4328 33.0834 34.6713 33.4457 34.9574 33.7507C35.2435 34.0653 35.5868 34.2941 35.9588 34.4657C36.3307 34.6277 36.7408 34.704 37.1604 34.704C37.5801 34.704 37.9616 34.6277 38.3335 34.4657C38.715 34.2941 39.0488 34.0653 39.3444 33.7507C39.6401 33.4457 39.869 33.0834 40.0216 32.6926C40.1741 32.2922 40.26 31.8823 40.26 31.4438ZM41.7001 31.4438C41.7001 32.0634 41.5856 32.6544 41.3567 33.1978C41.1279 33.7602 40.8036 34.2464 40.3649 34.6849C39.9357 35.1139 39.4303 35.4571 38.8866 35.6859C38.3335 35.9051 37.7613 36.0291 37.1604 36.0291C36.5501 36.0291 35.9683 35.9051 35.4056 35.6764C34.8525 35.438 34.3565 35.1139 33.9369 34.6849C33.5077 34.2464 33.174 33.7602 32.9451 33.2073C32.7257 32.664 32.6113 32.0729 32.6113 31.4438C32.6113 30.8241 32.7257 30.2235 32.9451 29.6802C33.174 29.1177 33.5077 28.6316 33.9369 28.193C34.3661 27.7641 34.862 27.4304 35.4056 27.2016C35.9588 26.9728 36.5501 26.8584 37.1604 26.8584C37.7708 26.8584 38.343 26.9728 38.8962 27.2016C39.4398 27.4304 39.9357 27.7641 40.3649 28.193C40.8036 28.6316 41.1279 29.1273 41.3567 29.6897C41.5856 30.2426 41.7001 30.8241 41.7001 31.4438ZM29.9027 28.2598V35.7908H28.415V28.2598H26.4408V27.0586H31.9914V28.2598H29.9027ZM19.4501 34.0462L20.6423 33.5219C20.7567 33.9128 20.957 34.2083 21.2526 34.4085C21.5674 34.6182 21.9488 34.7231 22.4162 34.7231C22.8549 34.7231 23.2077 34.5991 23.4748 34.3608C23.7323 34.132 23.8658 33.8174 23.8658 33.4171C23.8658 32.9118 23.4175 32.4542 22.5211 32.0539C22.3971 31.9967 22.3017 31.949 22.2254 31.9204C21.2145 31.4533 20.5469 31.0243 20.2036 30.6525C19.8698 30.2617 19.7076 29.8041 19.7076 29.2512C19.7076 28.5458 19.9556 27.9643 20.4706 27.5257C20.9761 27.0777 21.6437 26.8584 22.4734 26.8584C23.141 26.8584 23.7132 26.9824 24.1614 27.2302C24.6192 27.4876 24.9339 27.8403 25.1056 28.2979L23.9421 28.8794C23.7609 28.603 23.5606 28.4028 23.3412 28.2693C23.1219 28.1454 22.8644 28.0786 22.5878 28.0786C22.1777 28.0786 21.863 28.1835 21.6246 28.3837C21.3957 28.5839 21.2812 28.8508 21.2812 29.1749C21.2812 29.7088 21.7962 30.1949 22.8262 30.6525C22.9121 30.6907 22.9693 30.7193 23.017 30.7383C23.923 31.1292 24.5525 31.52 24.8862 31.9013C25.22 32.2731 25.4013 32.7593 25.4013 33.3217C25.4013 34.1511 25.1151 34.8089 24.5715 35.295C24.0184 35.7812 23.2745 36.0291 22.3589 36.0291C21.5674 36.0291 20.9284 35.8575 20.4324 35.5143C19.927 35.1711 19.6027 34.6849 19.4501 34.0462ZM17.1231 35.7908V27.0586H18.6204V35.7908H17.1231ZM10.2659 30.6144H10.5425C11.3341 30.6144 13.108 30.7002 13.375 30.5286C13.6325 30.3379 13.766 30.0329 13.766 29.5944C13.766 29.1082 13.623 28.7745 13.3464 28.5744C13.0603 28.3837 11.2959 28.2788 10.5425 28.2788H10.2659V30.6144ZM10.1801 32.0539V35.7908H8.77816V27.0586H11.7728C12.3832 27.0586 12.86 27.0968 13.2034 27.173C13.5372 27.2398 13.8137 27.3732 14.0522 27.5543C14.3478 27.7545 14.5576 28.031 14.7102 28.3742C14.8723 28.6983 14.9391 29.0605 14.9391 29.4704C14.9391 30.1568 14.7674 30.7097 14.4146 31.1006C14.0522 31.501 13.5372 31.7393 12.8409 31.8155L15.9977 35.7908H14.138L11.4676 32.0729L10.3422 32.0539H10.1801ZM15.95 20.6335L16.0359 20.7383L15.95 20.8241V20.6335ZM15.95 20.5191L35.625 0.5H31.4573L15.95 16.2769V20.5191ZM15.95 4.8184L20.2036 0.5H16.0263L15.95 0.576263V4.8184ZM15.95 12.5877L27.8332 0.5H23.6655L15.95 8.34557V12.5877ZM16.5985 21.358L20.1177 25.3332H16.1408L15.95 25.1139V22.0157L16.5985 21.358ZM24.6478 13.0643L35.5582 25.3332H31.5813L22.5687 15.2092L24.6478 13.0643ZM20.6804 17.1444L27.9476 25.3332H23.9612L18.6013 19.2893L20.6804 17.1444Z" fill="white"/>
</svg>
